<?xml version="1.0" encoding="utf-8"?>
<!-- Generator: Adobe Illustrator 23.0.3, SVG Export Plug-In . SVG Version: 6.00 Build 0)  -->
<svg version="1.1" id="Layer_1" xmlns="http://www.w3.org/2000/svg" xmlns:xlink="http://www.w3.org/1999/xlink" x="0px" y="0px"
	 viewBox="0 0 612 792" style="enable-background:new 0 0 612 792;" xml:space="preserve">
<style type="text/css">
	.st0{fill:#405FAC;stroke:#231F20;stroke-width:7;stroke-miterlimit:10;}
	.st1{fill:#5FBB46;stroke:#231F20;stroke-width:7;stroke-miterlimit:10;}
</style>
<g>
	<circle class="st0" cx="303" cy="357" r="300"/>
	<path class="st1" d="M261,57c0,0,62,54,26,120s-52,125,16,92s133-87,167-67s73.42,42.77,88,33S513,58,261,57z"/>
	<path class="st1" d="M37,233c0,0,134,35,139,71s-61-46-103,0s-45,97-36,110s59,9,29,35s-37.66,28.85-37.66,28.85S-31,320,37,233z"
		/>
	<path class="st1" d="M86.89,565.07c0,0,42.11-11.07,75.11,11.93s50,46,50,46s32,7,59,7s61.41-6,68,9s6.59,15,6.59,15
		S194.78,676.14,86.89,565.07z"/>
	<path class="st1" d="M602.67,371.07c0,0-40.67,27.93-84.67,35.93s-93.95-15-109.98,0C392,422,369,443,398,451s51,35,32,44
		s-41,59-3,46s66-6,78-36s35-71,49-58s26.99,23,26.99,23S611.34,387.15,602.67,371.07z"/>
	<path class="st1" d="M248,371.07c0,0-37,15.93-38,45.93s6,9,19,36s-26,50,4,52s26-14,47-34s0-35,32-68s51-60,5-62
		S248,371.07,248,371.07z"/>
</g>
</svg>
