<?xml version="1.0" encoding="utf-8"?>
<!-- Generator: Adobe Illustrator 23.0.3, SVG Export Plug-In . SVG Version: 6.00 Build 0)  -->
<svg version="1.1" id="Layer_1" xmlns="http://www.w3.org/2000/svg" xmlns:xlink="http://www.w3.org/1999/xlink" x="0px" y="0px"
	 viewBox="0 0 612 737.17" style="enable-background:new 0 0 612 737.17;" xml:space="preserve">
<style type="text/css">
	.st0{fill:none;stroke:#FAED22;stroke-width:8;stroke-miterlimit:10;}
</style>
<g>
	<polyline class="st0" points="296.31,0 296.31,124 365.31,222 228.31,292 365.31,383 228.31,481 360.31,557 292.31,637 292.31,717 
			"/>
</g>
<polygon class="st0" points="301.06,71.19 294.85,66.11 287.14,68.35 290.06,60.87 285.55,54.23 293.56,54.69 298.48,48.35 
	300.52,56.12 308.07,58.84 301.32,63.17 "/>
<polygon class="st0" points="318.8,162.25 312.59,157.17 304.88,159.4 307.8,151.93 303.29,145.29 311.3,145.75 316.22,139.41 
	318.26,147.17 325.81,149.89 319.06,154.23 "/>
<polygon class="st0" points="362.5,234.67 356.29,229.59 348.58,231.83 351.5,224.35 346.99,217.71 355,218.17 359.92,211.83 
	361.96,219.6 369.51,222.32 362.76,226.65 "/>
<polygon class="st0" points="289.8,275.67 283.59,270.59 275.89,272.83 278.8,265.35 274.29,258.71 282.3,259.17 287.22,252.83 
	289.26,260.6 296.81,263.32 290.06,267.65 "/>
<polygon class="st0" points="267.29,327.67 261.07,322.59 253.37,324.83 256.28,317.35 251.77,310.71 259.79,311.17 264.71,304.83 
	266.74,312.6 274.29,315.32 267.54,319.65 "/>
<polygon class="st0" points="332.32,368.25 326.11,363.17 318.4,365.41 321.32,357.93 316.81,351.29 324.82,351.75 329.74,345.42 
	331.78,353.18 339.33,355.9 332.58,360.23 "/>
<polygon class="st0" points="330.06,426.91 323.85,421.83 316.14,424.07 319.06,416.59 314.55,409.95 322.56,410.41 327.48,404.08 
	329.52,411.84 337.07,414.56 330.31,418.89 "/>
<polygon class="st0" points="274.5,461.67 268.29,456.59 260.58,458.83 263.5,451.35 258.99,444.71 267,445.17 271.92,438.83 
	273.96,446.6 281.51,449.32 274.76,453.65 "/>
<polygon class="st0" points="307.54,535.33 301.33,530.25 293.63,532.49 296.54,525.01 292.03,518.37 300.04,518.83 304.96,512.49 
	307,520.26 314.55,522.98 307.8,527.31 "/>
<polygon class="st0" points="362.5,570.49 356.29,565.41 348.58,567.65 351.5,560.17 346.99,553.53 355,553.99 359.92,547.66 
	361.96,555.42 369.51,558.14 362.76,562.47 "/>
<polygon class="st0" points="301.06,639.25 294.85,634.17 287.14,636.41 290.06,628.93 285.55,622.29 293.56,622.75 298.48,616.42 
	300.52,624.18 308.07,626.9 301.32,631.23 "/>
<polygon class="st0" points="296.28,728.42 290.07,723.34 282.37,725.57 285.28,718.1 280.77,711.46 288.78,711.92 293.7,705.58 
	295.74,713.34 303.29,716.06 296.54,720.4 "/>
</svg>
