<?xml version="1.0" encoding="utf-8"?>
<!-- Generator: Adobe Illustrator 23.0.3, SVG Export Plug-In . SVG Version: 6.00 Build 0)  -->
<svg version="1.1" id="Layer_1" xmlns="http://www.w3.org/2000/svg" xmlns:xlink="http://www.w3.org/1999/xlink" x="0px" y="0px"
	 viewBox="0 0 612 792" style="enable-background:new 0 0 612 792;" xml:space="preserve">
<style type="text/css">
	.st0{fill:#5D6D7B;stroke:#231F20;stroke-width:4;stroke-miterlimit:10;}
	.st1{fill:#747F88;stroke:#231F20;stroke-width:4;stroke-miterlimit:10;}
</style>
<g>
	<circle class="st0" cx="305.3" cy="364.96" r="300"/>
	<path class="st1" d="M503.31,175.33c0,0,20.43-26.55-69.45,0s-98.04-28.14-136.85-5.9s0,36.54,0,36.54s136.85-28.6,161.36,0
		S503.31,175.33,503.31,175.33z"/>
	<path class="st1" d="M92.52,255.6c-28.78,49.46-69.45,65.36-32.68,51.06S41.46,257,149.71,282.85s149.11,46.27,155.23,13.59
		s-69.45-38.81-87.83-40.85S108.4,228.3,92.52,255.6z"/>
	<path class="st1" d="M212.14,415.54c116.43-6.13,206.3-12.26,173.62,20.43s-104.17,57.19-173.62,18.38s-138.89-136.85-69.45-87.83
		S212.14,415.54,212.14,415.54z"/>
	<path class="st1" d="M498.32,315.3c-75.57,18.38-174.57,20.43-141.41,38.81c33.16,18.38,94.34,6.13,112.77,0
		s55.2,21.96,67.45-14.55C549.38,303.05,498.32,315.3,498.32,315.3z"/>
	<path class="st1" d="M177.64,524.71c0,0-123.23-114.99-114.72-67.46s24.51,32.23,63.49,67.46c38.98,35.23,10.38,86.29,75.74,78.12
		s69.45,14.3,103.15-8.17c33.7-22.47-11.01-6.13-61.16-24.51S177.64,524.71,177.64,524.71z"/>
	<path class="st1" d="M460.66,515.95c-75.57,18.38-174.57,20.43-141.41,38.81c33.16,18.38,94.34,6.13,112.77,0
		c18.43-6.13,55.2,21.96,67.45-14.55C511.72,503.69,460.66,515.95,460.66,515.95z"/>
</g>
</svg>
