<?xml version="1.0" encoding="utf-8"?>
<!-- Generator: Adobe Illustrator 23.0.3, SVG Export Plug-In . SVG Version: 6.00 Build 0)  -->
<svg version="1.1" id="Layer_1" xmlns="http://www.w3.org/2000/svg" xmlns:xlink="http://www.w3.org/1999/xlink" x="0px" y="0px"
	 viewBox="0 0 612 792" style="enable-background:new 0 0 612 792;" xml:space="preserve">
<style type="text/css">
	.st0{fill:#244BA0;stroke:#231F20;stroke-width:4;stroke-miterlimit:10;}
	.st1{fill:#5280C1;stroke:#231F20;stroke-width:4;stroke-miterlimit:10;}
	.st2{fill:#6F5AA6;stroke:#231F20;stroke-width:4;stroke-miterlimit:10;}
	.st3{fill:#5986C5;stroke:#231F20;stroke-width:4;stroke-miterlimit:10;}
	.st4{fill:#5489C8;stroke:#231F20;stroke-width:4;stroke-miterlimit:10;}
</style>
<g>
	<path class="st0" d="M607.3,364.8c0,165.69-134.31,300-300,300s-300-134.31-300-300c0-67.75,22.46-130.25,60.33-180.47
		c7.58-10.05,15.77-19.61,24.53-28.61C146.67,99.64,222.91,64.8,307.3,64.8C472.98,64.8,607.3,199.11,607.3,364.8z"/>
	<path class="st1" d="M60.66,204.15c0,0,309.12,98.04,479.84-28.09l18.18,24.95c0,0-214.68,205.59-516.18,22.66L60.66,204.15z"/>
	<path class="st2" d="M11.51,314.42c0,0,421.91,75.34,586.85-22.57l4.49,21.24c0,0-187.14,89.52-593.43,15.82L11.51,314.42z"/>
	<polygon class="st3" points="10.18,406.56 605.08,401.39 602.85,411.04 12.28,419.52 	"/>
	<path class="st4" d="M47.79,515.4h519.02l-28.93,41.32c0,0-182.32,99.05-456.91,4.98L47.79,515.4z"/>
</g>
</svg>
