<?xml version="1.0" encoding="utf-8"?>
<!-- Generator: Adobe Illustrator 23.0.3, SVG Export Plug-In . SVG Version: 6.00 Build 0)  -->
<svg version="1.1" id="Layer_1" xmlns="http://www.w3.org/2000/svg" xmlns:xlink="http://www.w3.org/1999/xlink" x="0px" y="0px"
	 viewBox="0 0 612 792" style="enable-background:new 0 0 612 792;" xml:space="preserve">
<style type="text/css">
	.st0{fill:url(#SVGID_1_);stroke:#231F20;stroke-width:4;stroke-miterlimit:10;}
	.st1{fill:#F7E34E;stroke:#231F20;stroke-width:4;stroke-miterlimit:10;}
</style>
<g>
	<linearGradient id="SVGID_1_" gradientUnits="userSpaceOnUse" x1="126.9875" y1="386.6383" x2="511.6886" y2="386.6383">
		<stop  offset="0" style="stop-color:#FFFFFF"/>
		<stop  offset="0.6498" style="stop-color:#DE9049"/>
	</linearGradient>
	<path class="st0" d="M511.69,386.64c0,103.08-86.12,186.64-192.35,186.64s-192.35-83.56-192.35-186.64c0-12.7,1.31-25.1,3.8-37.08
		C148.51,264.24,226.19,200,319.34,200C425.57,200,511.69,283.56,511.69,386.64z"/>
	<path class="st1" d="M126.99,386.64c0,0-170.8,10.9-75.43,25.14c95.37,14.24,547.25-44.49,547.25-44.49s52.47-20.08-93.32-27.84
		L126.99,386.64z"/>
	<line class="st1" x1="95.88" y1="399.32" x2="509.02" y2="355.5"/>
	<path class="st1" d="M148.68,300.44c0,0,232.04,2.08,305.89-46.51"/>
	<path class="st1" d="M162.29,494.42c0,0,254.96,54.63,323.39-14.01"/>
</g>
</svg>
